<svg width="16" height="16" viewBox="0 0 16 16" fill="none" xmlns="http://www.w3.org/2000/svg">
<path fill-rule="evenodd" clip-rule="evenodd" d="M11.9995 5C11.9995 7.20914 10.2087 9 7.99951 9C5.79037 9 3.99951 7.20914 3.99951 5C3.99951 2.79086 5.79037 1 7.99951 1C10.2087 1 11.9995 2.79086 11.9995 5ZM5.99951 5C5.99951 6.10457 6.89494 7 7.99951 7C9.10408 7 9.99951 6.10457 9.99951 5C9.99951 3.89543 9.10408 3 7.99951 3C6.89494 3 5.99951 3.89543 5.99951 5ZM3.90153 14.4851C3.58596 13.2228 4.54067 12 5.84181 12H10.1572C11.4583 12 12.413 13.2228 12.0974 14.4851L12.0293 14.7575C11.8954 15.2933 12.2212 15.8362 12.7569 15.9701C13.2927 16.1041 13.8357 15.7783 13.9696 15.2425L14.0377 14.9701C14.6689 12.4456 12.7594 10 10.1572 10H5.84181C3.23953 10 1.3301 12.4456 1.96124 14.9701L2.02934 15.2425C2.16329 15.7783 2.70623 16.1041 3.24202 15.9701C3.77782 15.8362 4.10358 15.2933 3.96963 14.7575L3.90153 14.4851Z" fill="url(#paint0_linear_3475_49230)"/>
<defs>
<linearGradient id="paint0_linear_3475_49230" x1="1" y1="0.5" x2="16.8524" y2="7.8373" gradientUnits="userSpaceOnUse">
<stop offset="0.27758" stop-color="#7C5AE2"/>
<stop offset="0.635417" stop-color="#0060C7"/>
<stop offset="1" stop-color="#0E8A00"/>
</linearGradient>
</defs>
</svg>
